<svg xmlns="http://www.w3.org/2000/svg" width="522.654" height="507.598" viewBox="0 0 522.654 507.598">
    <g id="prefix__Logo" style="isolation:isolate">
        <path id="prefix__ona" d="M149.2-70.605A45.67 45.67 0 00135.356-104a45.478 45.478 0 00-33.472-13.916A45.478 45.478 0 0068.413-104 45.67 45.67 0 0054.57-70.6a45.6 45.6 0 0013.843 33.466 45.6 45.6 0 0033.472 13.843 45.6 45.6 0 0033.472-13.843A45.6 45.6 0 00149.2-70.605zm-120.264 0q0-30.176 21.387-51.562t51.563-21.387q30.176 0 51.563 21.387t21.387 51.563q0 30.322-21.387 51.636T101.885 2.344q-30.176 0-51.562-21.313T28.936-70.605zm326.6-57.737V3H325.8v-131.343q0-17.773-11.45-27.856t-30.933-10.083q-19.482 0-30.933 10.083t-11.45 27.856V3H211.3v-131.343q0-27.344 21.106-46.826t51.013-19.482q29.907 0 51.013 19.482t21.105 46.826zm187.047 57.59V0h-25.635v-70.752a45.67 45.67 0 00-13.843-33.4 45.478 45.478 0 00-33.472-13.916 45.478 45.478 0 00-33.472 13.916 45.67 45.67 0 00-13.843 33.4 45.6 45.6 0 0013.844 33.472 45.6 45.6 0 0033.472 13.843 46.893 46.893 0 0021.533-4.98l11.719 22.851A71.591 71.591 0 01469.634 2.2q-30.176 0-51.562-21.313t-21.387-51.639q0-30.176 21.387-51.562t51.562-21.386q30.176 0 51.563 21.387t21.386 51.561z" transform="translate(-21.935 504.598)"/>
        <g id="prefix__Shape" transform="translate(-887.633 -2554.384)">
            <g id="prefix__Group_55" data-name="Group 55">
                <path id="prefix__q-mid-right" d="M191.139 0C136.8 22.43 0 75.739 0 75.739s145.655 13.38 198.75 19.5c6.069-8.454 10.171-62.49-7.611-95.239z"  transform="rotate(7 -20916.734 11190.502)"/>
                <path id="prefix__q-bottom-right" d="M170.981 106.888C119.377 75.435 0 0 0 0l234.651 50.007s-20.351 40.047-63.67 56.881z" transform="rotate(7 -21578.583 10721.076)"/>
                <path id="prefix__q-top-right" d="M0 156.463L223.52 38.132S200.941 10.122 176.027 0C129.532 38.581 0 156.463 0 156.463z" transform="rotate(7 -20299.507 10799.307)"/>
            </g>
            <g id="prefix__Group_54" data-name="Group 54" transform="translate(7)">
                <path id="prefix__q-mid-left" d="M191.139 95.243C136.8 72.813 0 19.5 0 19.5S145.655 6.124 198.75 0c6.069 8.458 10.171 62.494-7.611 95.243z" transform="rotate(173 463.932 1397.003)"/>
                <path id="prefix__q-bottom-left" d="M170.981 0C119.377 31.453 0 106.888 0 106.888l234.651-50.007S214.3 16.834 170.981 0z" transform="rotate(173 493 1443.306)"/>
                <path id="prefix__q-top-left" d="M0 0l223.52 118.331s-22.578 28.01-47.493 38.132C129.532 117.882 0 0 0 0z" transform="rotate(173 489.73 1389.862)"/>
            </g>
            <path id="prefix__pole" d="M0 0H33V154H0z" transform="translate(1132.704 2685.981)"/>
            <ellipse id="prefix__circle" cx="27.5" cy="27" rx="27.5" ry="27" transform="translate(1121.704 2679.981)"/>
        </g>
    </g>
</svg>
