<?xml version="1.0" encoding="UTF-8"?>
<!DOCTYPE svg PUBLIC "-//W3C//DTD SVG 1.1//EN" "http://www.w3.org/Graphics/SVG/1.1/DTD/svg11.dtd">
<svg version="1.1" xmlns="http://www.w3.org/2000/svg" xmlns:xlink="http://www.w3.org/1999/xlink" x="0" y="0" width="500.5" height="303.52" viewBox="0, 0, 500.5, 303.52">
  <g id="Background">
    <rect x="0" y="0" width="500.5" height="303.52" fill="#000000" fill-opacity="0"/>
  </g>
  <g id="live">
    <path d="M430.485,303.52 L430.485,233.02 L468.385,233.02 L468.385,245.72 L443.585,245.72 L443.585,261.92 L467.385,261.92 L467.385,274.62 L443.585,274.62 L443.585,290.82 L468.385,290.82 L468.385,303.52 z" fill="#555555" id="E"/>
    <path d="M310.265,303.52 L282.865,233.02 L296.585,233.02 L315.585,286.62 L334.585,233.02 L348.285,233.02 L320.985,303.52 z" fill="#555555" id="V"/>
    <path d="M175.155,303.52 L175.155,233.02 L188.255,233.02 L188.255,303.52 z" fill="#555555" id="I"/>
    <path d="M30.485,303.52 L30.485,233.02 L43.585,233.02 L43.585,290.82 L65.185,290.82 L65.185,303.52 z" fill="#555555" id="L"/>
    <path d="M365.365,90.77 C330.815,150.14 391.575,224.48 461.065,192.17 L449.445,169.47 C410.535,189 363.775,148.16 386.805,104.85 C407.655,67.09 468.705,74.12 474.805,122.19 C475.305,132.8 474.905,126.85 475.005,140.43 C475.005,160.85 474.905,197.62 475.005,197.62 L500.415,197.62 L500.415,127.45 C500.585,57.47 406.585,24.96 365.365,90.77 z" fill="#000000"/>
    <path d="M178.345,61.72 C177.835,73.37 178.245,66.08 178.145,79.65 L178.145,200 L208.015,200 L208.015,102.46 C209.425,65.09 198.455,33.79 247.645,28.62 C308.295,29.13 290.895,66.2 293.205,200 L323.085,200 L323.085,67 C321.675,-15.74 189.105,-26.78 178.345,61.72 z" fill="#000000"/>
    <path d="M0.085,127.5 C1.875,220.74 140.215,227.5 145.085,127.5 C143.095,34.26 5.155,27.47 0.085,127.5 z M24.585,127.5 C25.585,67.66 115.205,62.07 118.585,127.5 C117.795,187.34 27.865,192.93 24.585,127.5 z" fill="#000000"/>
  </g>
</svg>
