<?xml version="1.0" encoding="UTF-8"?>
<!DOCTYPE svg PUBLIC "-//W3C//DTD SVG 1.1//EN" "http://www.w3.org/Graphics/SVG/1.1/DTD/svg11.dtd">
<svg version="1.1" xmlns="http://www.w3.org/2000/svg" xmlns:xlink="http://www.w3.org/1999/xlink" x="0" y="0" width="500.5" height="200.001" viewBox="0, 0, 500.5, 200.001">
  <g id="Background">
    <rect x="0" y="0" width="500.5" height="200.001" fill="#000000" fill-opacity="0"/>
  </g>
  <g id="Layer_1">
    <path d="M365.365,90.77 C330.815,150.14 391.575,224.48 461.065,192.17 L449.445,169.47 C410.535,189 363.775,148.16 386.805,104.85 C407.655,67.09 468.705,74.12 474.805,122.19 C475.305,132.8 474.905,126.85 475.005,140.43 C475.005,160.85 474.905,197.62 475.005,197.62 L500.415,197.62 L500.415,127.45 C500.585,57.47 406.585,24.96 365.365,90.77 z" fill="#000000"/>
    <path d="M178.375,61.72 C177.875,73.37 178.275,66.08 178.175,79.65 L178.175,200 L208.055,200 L208.055,102.46 C209.455,65.09 198.495,33.79 247.685,28.62 C308.335,29.13 290.935,66.2 293.245,200 L323.115,200 L323.115,67 C321.715,-15.74 189.145,-26.78 178.375,61.72 z" fill="#000000"/>
    <path d="M0.085,127.506 C1.875,220.746 140.215,227.506 145.085,127.506 C143.095,34.266 5.155,27.476 0.085,127.506 z M24.585,127.506 C25.585,67.666 115.205,62.076 118.585,127.506 C117.795,187.346 27.865,192.936 24.585,127.506 z" fill="#000000"/>
  </g>
</svg>
