<?xml version="1.0" encoding="UTF-8"?>
<!DOCTYPE svg PUBLIC "-//W3C//DTD SVG 1.1//EN" "http://www.w3.org/Graphics/SVG/1.1/DTD/svg11.dtd">
<svg version="1.1" xmlns="http://www.w3.org/2000/svg" xmlns:xlink="http://www.w3.org/1999/xlink" x="0" y="0" width="500.5" height="260" viewBox="0, 0, 500.5, 260">
  <g id="Background">
    <rect x="0" y="0" width="500.5" height="260" fill="#000000" fill-opacity="0"/>
  </g>
  <g id="Layer_1">
    <g>
      <path d="M6.98,78.76 C-6.44,112.92 4.04,165.2 10.98,172.76 C61.91,160.45 201.89,129.83 201.89,129.83 C201.89,129.83 62.42,94.12 6.98,78.76 z" fill="#000000"/>
      <path d="M494.01,78.76 C438.5,94.12 299.18,129.85 299.18,129.85 C299.18,129.85 439.18,160.37 490.09,172.78 C496.95,165.2 507.43,112.92 494.01,78.76 z" fill="#000000"/>
      <path d="M275.26,120.7 L477.83,43 C477.83,43 459.22,12.9 436.2,0.1 C399.66,23.63 314.64,83.58 271.83,113.81 C267.52,107.7 260.27,103.27 249.83,102.68 C239.64,102.88 232.2,107.68 227.83,114.2 C185.14,84 99.5,23.73 62.8,-0 C39.8,12.9 21.16,43 21.16,43 L224.32,121 C222.133,127.641 222.592,134.869 225.6,141.18 L30.5,208.81 C30.5,208.81 55.09,245.53 99.17,256.75 C132.73,230 198.07,176.52 231.67,149 C232.26,149.49 232.84,150 233.53,150.48 L233.53,260 L265.85,260 L265.85,150.43 C266.395,150.031 266.919,149.603 267.42,149.15 C301.02,176.71 366.26,230.07 399.76,256.75 C443.84,245.53 468.42,208.81 468.42,208.81 L273.42,141.17 C276.651,134.839 277.31,127.505 275.26,120.7 z" fill="#000000"/>
    </g>
  </g>
</svg>
