<?xml version="1.0" encoding="UTF-8"?>
<!DOCTYPE svg PUBLIC "-//W3C//DTD SVG 1.1//EN" "http://www.w3.org/Graphics/SVG/1.1/DTD/svg11.dtd">
<svg version="1.1" xmlns="http://www.w3.org/2000/svg" xmlns:xlink="http://www.w3.org/1999/xlink" x="0" y="0" width="500.47" height="830.024" viewBox="0, 0, 500.47, 830.024">
  <g id="Background">
    <rect x="0" y="0" width="500.47" height="830.024" fill="#000000" fill-opacity="0"/>
  </g>
  <g id="logoshape">
    <path d="M365.335,90.834 C330.835,150.234 391.535,224.534 461.035,192.234 L449.435,169.534 C410.535,189.034 363.735,148.234 386.835,104.934 C407.635,67.134 468.735,74.234 474.835,122.234 C475.335,132.834 474.935,126.934 475.035,140.434 C475.035,160.834 474.935,197.634 475.035,197.634 L500.435,197.634 L500.435,127.434 C500.535,57.534 406.535,24.934 365.335,90.834 z" fill="#000000" id="Path_4"/>
    <path d="M178.335,61.734 C177.835,73.334 178.235,66.134 178.135,79.634 L178.135,829.934 L208.035,829.934 L208.035,102.434 C209.435,65.034 198.435,33.734 247.635,28.634 C307.055,29.124 291.635,64.694 293.115,192.024 C293.115,194.454 293.185,827.224 293.235,830.024 L323.035,830.024 L323.035,67.024 C321.635,-15.766 189.035,-26.766 178.335,61.734 z" fill="#000000" id="Path_5"/>
    <path d="M0.035,127.534 C1.835,220.734 140.135,227.534 145.035,127.534 C143.035,34.234 5.135,27.534 0.035,127.534 z M24.535,127.534 C25.535,67.734 115.135,62.134 118.535,127.534 C117.735,187.384 27.835,192.934 24.535,127.534 z" fill="#000000" id="Path_7"/>
  </g>
</svg>
