<?xml version="1.0" encoding="UTF-8"?>
<!DOCTYPE svg PUBLIC "-//W3C//DTD SVG 1.1//EN" "http://www.w3.org/Graphics/SVG/1.1/DTD/svg11.dtd">
<svg version="1.1" xmlns="http://www.w3.org/2000/svg" xmlns:xlink="http://www.w3.org/1999/xlink" x="0" y="0" width="500.5" height="586.04" viewBox="0, 0, 500.5, 586.04">
  <g id="Background">
    <rect x="0" y="0" width="500.5" height="586.04" fill="#000000" fill-opacity="0"/>
  </g>
  <g id="Layer_1">
    <g>
      <path d="M6.98,78.76 C-6.44,112.92 4.04,165.2 10.98,172.76 C61.91,160.45 201.89,129.83 201.89,129.83 C201.89,129.83 62.42,94.12 6.98,78.76 z" fill="#000000"/>
      <path d="M494.01,78.76 C438.5,94.12 299.18,129.85 299.18,129.85 C299.18,129.85 439.18,160.37 490.09,172.78 C496.95,165.2 507.43,112.92 494.01,78.76 z" fill="#000000"/>
      <path d="M275.26,120.7 L477.83,43 C477.83,43 459.22,12.9 436.2,0.1 C399.66,23.63 314.64,83.58 271.83,113.81 C267.52,107.7 260.27,103.27 249.83,102.68 C239.64,102.88 232.2,107.68 227.83,114.2 C185.14,84 99.5,23.73 62.8,-0 C39.8,12.9 21.16,43 21.16,43 L224.32,121 C222.133,127.641 222.592,134.869 225.6,141.18 L30.5,208.81 C30.5,208.81 55.09,245.53 99.17,256.75 C132.73,230 198.07,176.52 231.67,149 C232.26,149.49 232.84,150 233.53,150.48 L233.53,260 L265.85,260 L265.85,150.43 C266.395,150.031 266.919,149.603 267.42,149.15 C301.02,176.71 366.26,230.07 399.76,256.75 C443.84,245.53 468.42,208.81 468.42,208.81 L273.42,141.17 C276.651,134.839 277.31,127.505 275.26,120.7 z" fill="#000000"/>
    </g>
    <path d="M365.28,370.05 C330.73,429.42 391.49,503.76 460.98,471.45 L449.36,448.75 C410.45,468.28 363.69,427.44 386.72,384.13 C407.57,346.37 468.62,353.4 474.72,401.47 C475.22,412.08 474.82,406.13 474.92,419.71 C474.92,440.13 474.82,476.9 474.92,476.9 L500.33,476.9 L500.33,406.73 C500.5,336.75 406.5,304.24 365.28,370.05 z" fill="#000000"/>
    <path d="M178.29,341 C177.79,352.65 178.19,345.36 178.09,358.93 L178.09,479.28 L207.97,479.28 L207.97,381.74 C209.37,344.37 198.41,313.07 247.6,307.9 C308.25,308.41 290.85,345.48 293.16,479.28 L323.03,479.28 L323.03,346.28 C321.63,263.54 189.06,252.5 178.29,341 z" fill="#000000"/>
    <path d="M0,406.786 C1.79,500.026 140.13,506.786 145,406.786 C143.01,313.546 5.07,306.756 0,406.786 z M24.5,406.786 C25.5,346.946 115.12,341.356 118.5,406.786 C117.71,466.626 27.78,472.216 24.5,406.786 z" fill="#000000"/>
    <g>
      <path d="M47.13,540.17 C48.258,537.389 49.923,534.858 52.03,532.72 C53.961,530.693 56.29,529.087 58.87,528 C61.45,526.919 64.223,526.371 67.02,526.39 C70.303,526.328 73.555,527.03 76.52,528.44 C79.386,529.872 81.858,531.983 83.72,534.59 L100.72,534.59 Q95.46,523.22 87.18,517.65 Q78.9,512.08 67.18,512.08 C62.519,512.042 57.896,512.929 53.58,514.69 C49.287,516.489 45.383,519.1 42.08,522.38 C38.556,525.853 35.738,529.976 33.78,534.52 C31.892,538.973 30.929,543.763 30.95,548.6 C30.914,553.285 31.706,557.94 33.29,562.35 C34.819,566.579 37.159,570.469 40.18,573.8 C43.536,577.698 47.685,580.834 52.35,583 C57,585.053 62.038,586.076 67.12,586 Q78.64,586 86.95,580.53 Q95.26,575.06 100.23,564.17 L83.23,564.17 C81.52,566.63 79.182,568.588 76.46,569.84 C73.513,571.194 70.303,571.878 67.06,571.84 C61.232,571.939 55.643,569.532 51.71,565.23 C47.526,560.816 45.267,554.92 45.43,548.84 C45.42,545.866 45.998,542.92 47.13,540.17 z" fill="#555555"/>
      <path d="M465.73,524.47 C464.129,521.307 461.751,518.603 458.82,516.61 C456.91,515.414 454.777,514.618 452.55,514.27 C449.039,513.709 445.485,513.461 441.93,513.53 L424.25,513.53 L424.25,584.63 L438.17,584.63 L438.17,557.33 L443.34,557.33 Q454.77,557.33 461.51,551.23 Q468.25,545.13 468.24,534.92 C468.261,531.285 467.4,527.699 465.73,524.47 z M450.73,542.81 Q447.62,545.32 441.82,545.32 L438.16,545.32 L438.16,526 L441.72,526 Q447.83,526 450.83,528.37 Q453.83,530.74 453.83,535.57 C454.003,538.336 452.857,541.021 450.74,542.81 z" fill="#555555"/>
      <path d="M186.84,513.53 L159.25,584.62 L173.65,584.62 L179.17,569.73 L205.5,569.73 L211.11,584.62 L226.01,584.62 L198.81,513.53 z M183.96,556.53 L192.55,533.63 L200.95,556.53 z" fill="#555555"/>
      <path d="M319.47,565.24 L301.41,513.53 L283,513.53 L283,584.62 L296.77,584.62 L296.18,533.01 L314.2,584.62 L324.7,584.62 L342.67,533.01 L342.18,584.62 L355.9,584.62 L355.9,513.53 L337.49,513.53 L319.47,565.24 z" fill="#555555"/>
    </g>
  </g>
</svg>
