<?xml version="1.0" encoding="UTF-8"?>
<!DOCTYPE svg PUBLIC "-//W3C//DTD SVG 1.1//EN" "http://www.w3.org/Graphics/SVG/1.1/DTD/svg11.dtd">
<svg version="1.1" xmlns="http://www.w3.org/2000/svg" xmlns:xlink="http://www.w3.org/1999/xlink" x="0" y="0" width="500.5" height="582.8" viewBox="0, 0, 500.5, 582.8">
  <g id="Background">
    <rect x="0" y="0" width="500.5" height="582.8" fill="#000000" fill-opacity="0"/>
  </g>
  <g id="live">
    <path d="M430.4,582.8 L430.4,512.3 L468.3,512.3 L468.3,525 L443.5,525 L443.5,541.2 L467.3,541.2 L467.3,553.9 L443.5,553.9 L443.5,570.1 L468.3,570.1 L468.3,582.8 z" fill="#555555" id="E"/>
    <path d="M310.18,582.8 L282.78,512.3 L296.5,512.3 L315.5,565.9 L334.5,512.3 L348.2,512.3 L320.9,582.8 z" fill="#555555" id="V"/>
    <path d="M175.07,582.8 L175.07,512.3 L188.17,512.3 L188.17,582.8 z" fill="#555555" id="I"/>
    <path d="M30.4,582.8 L30.4,512.3 L43.5,512.3 L43.5,570.1 L65.1,570.1 L65.1,582.8 z" fill="#555555" id="L"/>
  </g>
  <g id="logoshape">
    <path d="M6.98,78.76 C-6.44,112.92 4.04,165.2 10.98,172.76 C61.91,160.45 201.89,129.83 201.89,129.83 C201.89,129.83 62.42,94.12 6.98,78.76 z" fill="#000000"/>
    <path d="M494.01,78.76 C438.5,94.12 299.18,129.85 299.18,129.85 C299.18,129.85 439.18,160.37 490.09,172.78 C496.95,165.2 507.43,112.92 494.01,78.76 z" fill="#000000"/>
    <path d="M275.26,120.7 L477.83,43 C477.83,43 459.22,12.9 436.2,0.1 C399.66,23.63 314.64,83.58 271.83,113.81 C267.52,107.7 260.27,103.27 249.83,102.68 C239.64,102.88 232.2,107.68 227.83,114.2 C185.14,84 99.5,23.73 62.8,0 C39.8,12.9 21.16,43 21.16,43 L224.32,121 C222.133,127.641 222.592,134.869 225.6,141.18 L30.5,208.81 C30.5,208.81 55.09,245.53 99.17,256.75 C132.73,230 198.07,176.52 231.67,149 C232.26,149.49 232.84,150 233.53,150.48 L233.53,260 L265.85,260 L265.85,150.43 C266.395,150.031 266.919,149.603 267.42,149.15 C301.02,176.71 366.26,230.07 399.76,256.75 C443.84,245.53 468.42,208.81 468.42,208.81 L273.42,141.17 C276.651,134.839 277.31,127.505 275.26,120.7 z" fill="#000000"/>
    <path d="M365.28,370.05 C330.73,429.42 391.49,503.76 460.98,471.45 L449.36,448.75 C410.45,468.28 363.69,427.44 386.72,384.13 C407.57,346.37 468.62,353.4 474.72,401.47 C475.22,412.08 474.82,406.13 474.92,419.71 C474.92,440.13 474.82,476.9 474.92,476.9 L500.33,476.9 L500.33,406.73 C500.5,336.75 406.5,304.24 365.28,370.05 z" fill="#000000"/>
    <path d="M178.26,341 C177.75,352.65 178.16,345.36 178.06,358.93 L178.06,479.28 L207.93,479.28 L207.93,381.74 C209.34,344.37 198.37,313.07 247.56,307.9 C308.21,308.41 290.81,345.48 293.12,479.28 L323,479.28 L323,346.28 C321.59,263.54 189.02,252.5 178.26,341 z" fill="#000000"/>
    <path d="M0,406.78 C1.79,500.02 140.13,506.78 145,406.78 C143.01,313.54 5.07,306.75 0,406.78 z M24.5,406.78 C25.5,346.94 115.12,341.35 118.5,406.78 C117.71,466.62 27.78,472.21 24.5,406.78 z" fill="#000000"/>
  </g>
</svg>
