<?xml version="1.0" encoding="UTF-8"?>
<svg viewBox="0 0 84 32" xmlns="http://www.w3.org/2000/svg">
<rect width="84" height="32" />
<path d="m84 12.038c-0.9453-3.6064-3.2401-5.0379-6.3725-5.0379-2.538 0-5.7232 1.4315-5.7232 4.8788 0 2.2271 1.5386 3.9774 4.0493 4.4284l2.376 0.4239c1.6202 0.2915 2.0792 0.9016 2.0792 1.7236 0 0.928-0.9989 1.4583-2.4839 1.4583-1.9437 0-3.1589-0.6894-3.348-2.6253l-3.4287 0.5305c0.5396 3.7385 3.8874 5.2769 6.9113 5.2769 2.8623 0 5.9132-1.6444 5.9132-4.9586 0-2.2541-1.3773-3.8976-3.9422-4.3756l-2.6186-0.4768c-1.4583-0.2651-1.944-0.9811-1.944-1.6704 0-0.8752 0.9447-1.4316 2.2408-1.4316 1.6472 0 2.8081 0.5564 2.862 2.386l3.4293-0.5302zm-76.223 5.6738l3.5633-10.314h4.1848l-6.2101 15.299h-3.1046l-6.21-15.299h4.1848l3.5918 10.314zm21.897-5.9389c0 1.2195-0.972 2.068-2.1062 2.068-1.1339 0-2.1056-0.8485-2.1056-2.068 0-1.2199 0.9717-2.068 2.1056-2.068 1.1342 0 2.1065 0.84812 2.1065 2.068h-3e-4zm0.6479 5.4092c-1.4043 1.8026-2.8892 3.0488-5.5082 3.0489-2.6723 0-4.7518-1.5909-6.3717-3.924-0.6481-0.9548-1.6471-1.1667-2.3763-0.6629-0.6749 0.4773-0.8365 1.4849-0.2158 2.3601 2.2408 3.3674 5.3457 5.3291 8.9635 5.3291 3.3213 0 5.9135-1.5906 7.9382-4.2423 0.7558-0.9808 0.7288-1.9884 0-2.5453-0.6752-0.5308-1.6742-0.3444-2.4297 0.6364zm9.3161-2.1745c0 3.129 1.836 4.773 3.8882 4.773 1.9437 0 3.942-1.538 3.942-4.773 0-3.1822-1.9983-4.7197-3.9153-4.7197-2.0789 0-3.9149 1.4583-3.9149 4.7197zm0-5.4883v-2.0953h-3.8068v20.576h3.8068v-7.3184c1.2691 1.6972 2.916 2.4135 4.7787 2.4135 3.4835 0 6.8852-2.7048 6.8852-8.2729 0-5.33-3.5369-7.8219-6.5611-7.8219-2.403 0-4.0496 1.0868-5.1028 2.5189zm18.28 5.4883c0 3.129 1.8358 4.773 3.888 4.773 1.9437 0 3.9416-1.538 3.9416-4.773 0-3.1822-1.9979-4.7197-3.9149-4.7197-2.0789 0-3.915 1.4583-3.915 4.7197h3e-4zm0-5.4883v-2.0953h-3.807v20.576h3.8067v-7.3184c1.2691 1.6972 2.916 2.4135 4.7788 2.4135 3.4832 0 6.8852-2.7048 6.8852-8.2729 0-5.33-3.5369-7.8219-6.5611-7.8219-2.4031 0-4.0496 1.0868-5.1026 2.5189z" clip-rule="evenodd" fill="#FF5B24" fill-rule="evenodd"/>
</svg>
